<?xml version="1.0" encoding="UTF-8" standalone="no"?>
<svg
   viewBox="0 0 512 512"
   width="512"
   height="512"
   version="1.1"
   id="svg10"
   sodipodi:docname="app_icon.svg"
   inkscape:version="1.3.2 (091e20e, 2023-11-25, custom)"
   inkscape:export-filename="app_icon_16.png"
   inkscape:export-xdpi="3"
   inkscape:export-ydpi="3"
   xmlns:inkscape="http://www.inkscape.org/namespaces/inkscape"
   xmlns:sodipodi="http://sodipodi.sourceforge.net/DTD/sodipodi-0.dtd"
   xmlns="http://www.w3.org/2000/svg"
   xmlns:svg="http://www.w3.org/2000/svg">
  <defs
     id="defs10" />
  <sodipodi:namedview
     id="namedview10"
     pagecolor="#ffffff"
     bordercolor="#000000"
     borderopacity="0.25"
     inkscape:showpageshadow="2"
     inkscape:pageopacity="0.0"
     inkscape:pagecheckerboard="0"
     inkscape:deskcolor="#d1d1d1"
     inkscape:zoom="1.6035156"
     inkscape:cx="256"
     inkscape:cy="256"
     inkscape:window-width="1920"
     inkscape:window-height="1017"
     inkscape:window-x="1272"
     inkscape:window-y="-8"
     inkscape:window-maximized="1"
     inkscape:current-layer="svg10"
     inkscape:export-bgcolor="#ffffff00" />
  <rect
     width="512"
     height="512"
     rx="100"
     fill="#1A237E"
     id="rect1"
     style="opacity:1;stroke:none;fill:#1a237e;stroke-opacity:1;fill-opacity:1"
     inkscape:export-filename="app_icon_150.png"
     inkscape:export-xdpi="28.125"
     inkscape:export-ydpi="28.125" />
  <rect
     x="26"
     y="152.90378"
     width="420"
     height="260"
     rx="16"
     fill="#ff6f00"
     opacity="0.3"
     stroke="#ffffff"
     stroke-width="10"
     id="rect2"
     style="opacity:1" />
  <rect
     x="46"
     y="132.90378"
     width="420"
     height="260"
     rx="16"
     fill="#ff6f00"
     opacity="0.5"
     stroke="#ffffff"
     stroke-width="10"
     id="rect3"
     style="opacity:1" />
  <rect
     x="66"
     y="112.90378"
     width="420"
     height="260"
     rx="16"
     fill="#ff6f00"
     stroke="#ffffff"
     stroke-width="10"
     id="rect4" />
  <path
     d="m 272.838,152.90378 h 14 l 4,30 h -36 l 4,-30 z"
     fill="#ffffff"
     id="path4" />
  <path
     d="m 350.78029,197.90378 7,12.12436 -23.98076,18.4641 -18,-31.17692 27.98076,-11.5359 z"
     fill="#ffffff"
     id="path5" />
  <path
     d="m 350.78029,287.90379 -7,12.12435 -27.98076,-11.5359 18,-31.17691 23.98076,18.4641 z"
     fill="#ffffff"
     id="path6" />
  <path
     d="m 272.838,332.90378 h -14 l -4,-30 h 36 l -4,30 z"
     fill="#ffffff"
     id="path7" />
  <path
     d="m 194.89571,287.90378 -7,-12.12436 23.98076,-18.4641 18,31.17692 -27.98076,11.5359 z"
     fill="#ffffff"
     id="path8" />
  <path
     d="m 194.89571,197.90378 7,-12.12436 27.98076,11.5359 -18,31.17691 -23.98076,-18.4641 z"
     fill="#ffffff"
     id="path9" />
  <circle
     cx="272.83801"
     cy="242.90378"
     r="50"
     fill="#1a237e"
     stroke="#ffffff"
     stroke-width="12"
     id="circle9"
     style="fill:#ffffff;fill-opacity:1" />
  <circle
     cx="272.83801"
     cy="242.90378"
     r="37"
     fill="#ffffff"
     id="circle10"
     style="fill:#ff6f00;fill-opacity:1;stroke-width:2.05556" />
</svg>
